<?plantuml 1.2026.2beta3?><svg xmlns="http://www.w3.org/2000/svg" xmlns:xlink="http://www.w3.org/1999/xlink" contentStyleType="text/css" data-diagram-type="DESCRIPTION" height="854px" preserveAspectRatio="none" style="width:1199px;height:854px;background:#1E1E2E;" version="1.1" viewBox="0 0 1199 854" width="1199px" zoomAndPan="magnify"><title>SupportMind &#8212; System Architecture</title><defs/><g><rect fill="#1E1E2E" height="854" style="stroke:none;stroke-width:1;" width="1199" x="0" y="0"/><g class="title" data-source-line="34"><text fill="#CDD6F4" font-family="Geist" font-size="14" font-weight="bold" lengthAdjust="spacing" textLength="287.3145" x="449.0645" y="28.9951">SupportMind &#8212; System Architecture</text></g><!--cluster backend--><g class="cluster" data-qualified-name="backend" data-source-line="38" id="ent0003"><rect fill="#313244" height="385.66" rx="6" ry="6" style="stroke:#585B70;stroke-width:1;" width="542" x="249.3" y="56.2969"/><rect fill="#313244" height="10" style="stroke:#585B70;stroke-width:1;" width="15" x="771.3" y="61.2969"/><rect fill="#313244" height="2" style="stroke:#585B70;stroke-width:1;" width="4" x="769.3" y="63.2969"/><rect fill="#313244" height="2" style="stroke:#585B70;stroke-width:1;" width="4" x="769.3" y="67.2969"/><text fill="#CDD6F4" font-family="Geist" font-size="13" font-weight="bold" lengthAdjust="spacing" textLength="62.4102" x="489.0949" y="87.3638">Backend</text><text fill="#CDD6F4" font-family="Geist" font-size="13" font-weight="bold" lengthAdjust="spacing" textLength="158.0884" x="441.2558" y="102.4966">FastAPI / Python 3.12</text></g><!--cluster supabase--><g class="cluster" data-qualified-name="supabase" data-source-line="45" id="ent0008"><path d="M239.3,518.5269 C239.3,508.5269 428.8,508.5269 428.8,508.5269 C428.8,508.5269 618.3,508.5269 618.3,518.5269 L618.3,722.7869 C618.3,732.7869 428.8,732.7869 428.8,732.7869 C428.8,732.7869 239.3,732.7869 239.3,722.7869 L239.3,518.5269" fill="#313244" style="stroke:#585B70;stroke-width:1;"/><path d="M239.3,518.5269 C239.3,528.5269 428.8,528.5269 428.8,528.5269 C428.8,528.5269 618.3,528.5269 618.3,518.5269" fill="none" style="stroke:#585B70;stroke-width:1;"/><text fill="#CDD6F4" font-family="Geist" font-size="13" font-weight="bold" lengthAdjust="spacing" textLength="71.3286" x="393.1357" y="548.5938">Supabase</text><text fill="#CDD6F4" font-family="Geist" font-size="13" font-weight="bold" lengthAdjust="spacing" textLength="193.3687" x="332.1157" y="563.7266">PostgreSQL 17 + pgvector</text></g><!--entity api--><g class="entity" data-qualified-name="backend.api" data-source-line="39" id="ent0004"><rect fill="#313244" height="72.2656" rx="6" ry="6" style="stroke:#585B70;stroke-width:0.5;" width="158.1201" x="338.24" y="162.2969"/><rect fill="#313244" height="10" style="stroke:#585B70;stroke-width:0.5;" width="15" x="476.3601" y="167.2969"/><rect fill="#313244" height="2" style="stroke:#585B70;stroke-width:0.5;" width="4" x="474.3601" y="169.2969"/><rect fill="#313244" height="2" style="stroke:#585B70;stroke-width:0.5;" width="4" x="474.3601" y="173.2969"/><text fill="#CDD6F4" font-family="Geist" font-size="13" lengthAdjust="spacing" textLength="100.2168" x="359.24" y="200.3638">Conversation &amp;</text><text fill="#CDD6F4" font-family="Geist" font-size="13" lengthAdjust="spacing" textLength="106.1201" x="359.24" y="215.4966">Learning Routes</text></g><!--entity ticket_svc--><g class="entity" data-qualified-name="backend.ticket_svc" data-source-line="40" id="ent0005"><rect fill="#313244" height="72.2656" rx="6" ry="6" style="stroke:#585B70;stroke-width:0.5;" width="143.5015" x="435.54" y="353.6869"/><rect fill="#313244" height="10" style="stroke:#585B70;stroke-width:0.5;" width="15" x="559.0415" y="358.6869"/><rect fill="#313244" height="2" style="stroke:#585B70;stroke-width:0.5;" width="4" x="557.0415" y="360.6869"/><rect fill="#313244" height="2" style="stroke:#585B70;stroke-width:0.5;" width="4" x="557.0415" y="364.6869"/><text fill="#CDD6F4" font-family="Geist" font-size="13" lengthAdjust="spacing" textLength="91.5015" x="456.54" y="391.7538">Ticket Service</text><text fill="#CDD6F4" font-family="Geist" font-size="13" lengthAdjust="spacing" textLength="78.9775" x="456.54" y="406.8866">(LangChain)</text></g><!--entity learn_svc--><g class="entity" data-qualified-name="backend.learn_svc" data-source-line="41" id="ent0006"><rect fill="#313244" height="57.1328" rx="6" ry="6" style="stroke:#585B70;stroke-width:0.5;" width="161.0718" x="613.76" y="361.2569"/><rect fill="#313244" height="10" style="stroke:#585B70;stroke-width:0.5;" width="15" x="754.8318" y="366.2569"/><rect fill="#313244" height="2" style="stroke:#585B70;stroke-width:0.5;" width="4" x="752.8318" y="368.2569"/><rect fill="#313244" height="2" style="stroke:#585B70;stroke-width:0.5;" width="4" x="752.8318" y="372.2569"/><text fill="#CDD6F4" font-family="Geist" font-size="13" lengthAdjust="spacing" textLength="109.0718" x="634.76" y="399.3238">Learning Service</text></g><!--entity rag--><g class="entity" data-qualified-name="backend.rag" data-source-line="42" id="ent0007"><rect fill="#313244" height="72.2656" rx="6" ry="6" style="stroke:#585B70;stroke-width:0.5;" width="135.2939" x="265.65" y="353.6869"/><rect fill="#313244" height="10" style="stroke:#585B70;stroke-width:0.5;" width="15" x="380.9439" y="358.6869"/><rect fill="#313244" height="2" style="stroke:#585B70;stroke-width:0.5;" width="4" x="378.9439" y="360.6869"/><rect fill="#313244" height="2" style="stroke:#585B70;stroke-width:0.5;" width="4" x="378.9439" y="364.6869"/><text fill="#CDD6F4" font-family="Geist" font-size="13" lengthAdjust="spacing" textLength="83.2939" x="286.65" y="391.7538">RAG Pipeline</text><text fill="#CDD6F4" font-family="Geist" font-size="13" lengthAdjust="spacing" textLength="81.7197" x="286.65" y="406.8866">(LangGraph)</text></g><!--entity corpus--><g class="entity" data-qualified-name="supabase.corpus" data-source-line="46" id="ent0009"><rect fill="#313244" height="72.2656" rx="6" ry="6" style="stroke:#585B70;stroke-width:0.5;" width="156.876" x="254.86" y="644.5269"/><rect fill="#313244" height="10" style="stroke:#585B70;stroke-width:0.5;" width="15" x="391.736" y="649.5269"/><rect fill="#313244" height="2" style="stroke:#585B70;stroke-width:0.5;" width="4" x="389.736" y="651.5269"/><rect fill="#313244" height="2" style="stroke:#585B70;stroke-width:0.5;" width="4" x="389.736" y="655.5269"/><text fill="#CDD6F4" font-family="Geist" font-size="13" lengthAdjust="spacing" textLength="104.876" x="275.86" y="682.5938">retrieval_corpus</text><text fill="#CDD6F4" font-family="Geist" font-size="13" lengthAdjust="spacing" textLength="91.3047" x="275.86" y="697.7266">(vector index)</text></g><!--entity tables--><g class="entity" data-qualified-name="supabase.tables" data-source-line="47" id="ent0010"><rect fill="#313244" height="72.2656" rx="6" ry="6" style="stroke:#585B70;stroke-width:0.5;" width="155.562" x="446.51" y="644.5269"/><rect fill="#313244" height="10" style="stroke:#585B70;stroke-width:0.5;" width="15" x="582.072" y="649.5269"/><rect fill="#313244" height="2" style="stroke:#585B70;stroke-width:0.5;" width="4" x="580.072" y="651.5269"/><rect fill="#313244" height="2" style="stroke:#585B70;stroke-width:0.5;" width="4" x="580.072" y="655.5269"/><text fill="#CDD6F4" font-family="Geist" font-size="13" lengthAdjust="spacing" textLength="81.853" x="467.51" y="682.5938">tickets / KB /</text><text fill="#CDD6F4" font-family="Geist" font-size="13" lengthAdjust="spacing" textLength="103.562" x="467.51" y="697.7266">learning_events</text></g><!--entity frontend--><g class="entity" data-qualified-name="frontend" data-source-line="36" id="ent0002"><rect fill="#313244" height="87.3984" rx="6" ry="6" style="stroke:#585B70;stroke-width:0.5;" width="204.5913" x="7" y="154.7269"/><rect fill="#313244" height="10" style="stroke:#585B70;stroke-width:0.5;" width="15" x="191.5913" y="159.7269"/><rect fill="#313244" height="2" style="stroke:#585B70;stroke-width:0.5;" width="4" x="189.5913" y="161.7269"/><rect fill="#313244" height="2" style="stroke:#585B70;stroke-width:0.5;" width="4" x="189.5913" y="165.7269"/><text fill="#CDD6F4" font-family="Geist" font-size="13" font-weight="bold" lengthAdjust="spacing" textLength="67.0693" x="28" y="192.7938">Frontend</text><text fill="#CDD6F4" font-family="Geist" font-size="13" lengthAdjust="spacing" textLength="136.2651" x="28" y="207.9266">Next.js 16 / React 19</text><text fill="#CDD6F4" font-family="Geist" font-size="13" lengthAdjust="spacing" textLength="152.5913" x="28" y="223.0594">TailwindCSS 4 / Shadcn</text></g><!--entity openai--><g class="entity" data-qualified-name="openai" data-source-line="50" id="ent0011"><path d="M998.0799,354.7421 C1001.0259,348.7297 1005.2875,347.9153 1009.2903,353.7413 C1013.4097,348.133 1018.0731,347.2828 1022.0804,353.859 C1025.5009,345.3336 1031.3187,345.8766 1036.8918,351.6256 C1040.6015,345.7336 1045.4746,344.5229 1049.8186,350.9605 C1052.4926,344.6911 1058.3619,345.0401 1061.5508,350.443 C1064.4706,343.1598 1070.5859,343.4758 1075.0234,348.8242 C1078.0808,343.0546 1082.8968,342.5643 1086.5232,348.2531 C1091.6986,341.6631 1097.0833,342.1333 1100.2621,350.1333 C1103.9463,344.6729 1108.947,345.0153 1112.5228,350.2575 C1117.3143,343.3477 1123.4802,344.9309 1126.3451,352.1432 C1130.314,346.1462 1135.8922,347.2915 1139.1766,352.9 C1142.9961,346.429 1148.9189,347.2278 1151.814,353.7959 C1156.3064,347.7441 1161.5005,348.0133 1165.8213,353.9956 C1170.0211,348.5195 1175.2193,349.8624 1177.9378,355.5966 C1187.8143,357.9244 1189.8431,366.28 1182.1341,372.878 C1192.4433,375.918 1192.4434,384.0928 1185.1571,390.203 C1191.9746,397.1968 1192.2319,407.2067 1180.6244,409.9771 C1187.5627,414.8156 1188.3322,422.9805 1179.0126,426.2042 C1175.606,432.541 1169.8415,432.2773 1165.8224,426.8936 C1162.9209,433.0704 1157.9593,435.0403 1152.6759,429.5857 C1149.1368,435.715 1142.5897,436.1174 1139.0253,429.613 C1135.9516,435.5331 1132.2913,436.7622 1126.9994,432.1444 C1122.6855,438.0773 1117.2904,438.5148 1112.9564,432.1675 C1110.4569,438.6188 1106.1597,440.0232 1101.3022,434.4535 C1097.9619,440.8126 1093.6121,441.9824 1088.2115,436.7878 C1083.3516,442.2565 1076.8398,440.9833 1074.7925,433.8038 C1070.0502,440.0692 1066.0024,439.3671 1061.7884,433.2489 C1057.2568,439.7273 1050.3905,438.5907 1047.6093,431.4292 C1043.7169,437.2598 1037.9114,437.2063 1035.3497,430.1621 C1031.8465,435.946 1026.4457,436.9944 1022.61,430.5073 C1017.7162,436.4634 1012.1774,435.7579 1008.8554,428.8294 C1005.0763,432.5767 999.8498,431.3547 998.245,426.2292 C989.5343,422.2555 988.3978,416.1088 995.6486,409.6372 C985.9761,405.991 984.5081,396.9118 992.0337,390.0858 C983.8469,384.2462 986.8686,376.4805 994.6576,373.1104 C987.2273,365.7154 987.1293,358.7125 998.0799,354.7421" fill="#313244" style="stroke:#585B70;stroke-width:0.5;"/><text fill="#CDD6F4" font-family="Geist" font-size="13" font-weight="bold" lengthAdjust="spacing" textLength="53.3267" x="1008.84" y="379.1938">OpenAI</text><text fill="#CDD6F4" font-family="Geist" font-size="13" lengthAdjust="spacing" textLength="79.5869" x="1008.84" y="394.3266">GPT-4o-mini</text><text fill="#CDD6F4" font-family="Geist" font-size="13" lengthAdjust="spacing" textLength="154.9209" x="1008.84" y="409.4594">text-embedding-3-large</text></g><!--entity cohere--><g class="entity" data-qualified-name="cohere" data-source-line="51" id="ent0012"><path d="M818.4933,362.5318 C820.9639,355.7558 826.5636,355.4683 830.4392,361.1887 C833.7895,354.1255 839.1172,354.4744 843.0899,360.5913 C847.0448,353.4408 852.629,353.3169 857.4315,359.6926 C860.0435,353.1138 866.5234,353.5212 870.2605,358.4368 C873.2349,352.6531 879.0628,353.2453 881.9819,358.4956 C886.4814,351.634 891.1045,353.011 895.0211,359.0834 C898.6007,354.0481 904.0739,352.8522 907.2149,359.5396 C912.6998,353.5419 918.1681,352.8816 921.7698,361.4246 C925.3716,355.8978 930.7912,356.6251 933.6356,362.2319 C937.7767,356.2118 941.8418,356.3825 945.6951,362.5176 C954.0725,364.4706 954.7155,370.3197 950.0353,376.3653 C958.098,377.9291 959.8532,383.7051 955.1451,390.0407 C962.3315,396.2343 959.277,402.4729 952.0064,405.7843 C956.8236,413.486 954.9303,417.6618 946.258,419.8509 C942.0469,425.929 938.2536,424.5872 934.5737,419.3045 C932.0438,427.6182 925.2263,428.0811 920.2795,421.6472 C917.1022,428.1532 910.8462,428.5643 907.209,422.111 C905.1875,428.3716 900.5521,428.5567 896.1369,424.7412 C892.9624,432.5238 886.3053,432.83 881.9962,425.8263 C876.3275,431.4913 872.5281,430.4071 869.6134,423.1809 C865.8522,428.4553 860.1503,428.5728 857.4876,422.0517 C853.4064,428.0591 848.0823,426.884 845.0282,420.9775 C839.4373,428.1447 835.1291,426.7588 830.7526,419.7542 C826.362,425.578 821.2639,425.1969 817.5844,418.9768 C811.0476,414.837 810.9136,410.399 817.053,405.75 C810.6012,401.7161 808.8151,397.2637 815.1098,391.4925 C808.1702,386.7869 809.5345,379.4189 816.6999,376.1778 C810.0038,371.4115 810.8557,365.4143 818.4933,362.5318" fill="#313244" style="stroke:#585B70;stroke-width:0.5;"/><text fill="#CDD6F4" font-family="Geist" font-size="13" font-weight="bold" lengthAdjust="spacing" textLength="51.7715" x="830.44" y="386.7538">Cohere</text><text fill="#CDD6F4" font-family="Geist" font-size="13" lengthAdjust="spacing" textLength="101.7212" x="830.44" y="401.8866">rerank-v4.0-pro</text></g><g class="entity" data-qualified-name="GMN23" data-source-line="65" id="ent0024"><path d="M238.15,785.7869 L238.15,841.1853 A6,6 0 0 0 244.15,847.1853 L422.4449,847.1853 A6,6 0 0 0 428.4449,841.1853 L428.4449,789.7869 L418.4449,779.7869 L337.3,779.7869 L333.3,717.0569 L329.3,779.7869 L244.15,779.7869 A6,6 0 0 0 238.15,785.7869" fill="#45475A" style="stroke:#585B70;stroke-width:0.5;"/><path d="M418.4449,779.7869 L418.4449,786.7869 A3,3 0 0 0 421.4449,789.7869 L428.4449,789.7869 L418.4449,779.7869" fill="#45475A" style="stroke:#585B70;stroke-width:0.5;"/><text fill="#CDD6F4" font-family="Geist" font-size="13" lengthAdjust="spacing" textLength="147.7861" x="250.15" y="802.8538">Scripts + KB articles +</text><text fill="#CDD6F4" font-family="Geist" font-size="13" lengthAdjust="spacing" textLength="128.1909" x="250.15" y="817.9866">ticket resolutions in</text><text fill="#CDD6F4" font-family="Geist" font-size="13" lengthAdjust="spacing" textLength="157.2949" x="250.15" y="833.1194">one 3072d vector space</text></g><!--link frontend to api--><g class="link" data-entity-1="ent0002" data-entity-2="ent0004" data-link-type="dependency" data-source-line="53" id="lnk13"><path d="M211.86,198.4269 C252.98,198.4269 293.63,198.4269 332.07,198.4269" fill="none" id="frontend-to-api" style="stroke:#89B4FA;stroke-width:1;"/><polygon fill="#89B4FA" points="338.07,198.4269,329.07,194.4269,333.07,198.4269,329.07,202.4269,338.07,198.4269" style="stroke:#89B4FA;stroke-width:1;"/><text fill="#A6ADC8" font-family="Geist" font-size="13" lengthAdjust="spacing" textLength="78.1841" x="235.91" y="185.4938">HTTP / JSON</text></g><!--link api to ticket_svc--><g class="link" data-entity-1="ent0004" data-entity-2="ent0005" data-link-type="dependency" data-source-line="54" id="lnk14"><path d="M406.22,234.9869 C400.78,259.1169 397.77,291.0769 410.3,316.1269 C417.64,330.8069 424.8057,339.5627 437.7657,349.8227" fill="none" id="api-to-ticket_svc" style="stroke:#89B4FA;stroke-width:1;"/><polygon fill="#89B4FA" points="442.47,353.5469,437.8964,344.8244,438.5498,350.4434,432.9308,351.0967,442.47,353.5469" style="stroke:#89B4FA;stroke-width:1;"/></g><!--link api to learn_svc--><g class="link" data-entity-1="ent0004" data-entity-2="ent0006" data-link-type="dependency" data-source-line="55" id="lnk15"><path d="M496.53,205.3769 C585.25,213.8869 720.78,233.0369 752.3,272.1269 C774.16,299.2469 752.8641,331.6184 729.1341,356.5784" fill="none" id="api-to-learn_svc" style="stroke:#89B4FA;stroke-width:1;"/><polygon fill="#89B4FA" points="725,360.9269,734.1002,357.1603,728.4451,357.3032,728.3023,351.6481,725,360.9269" style="stroke:#89B4FA;stroke-width:1;"/></g><!--link learn_svc to rag--><g class="link" data-entity-1="ent0006" data-entity-2="ent0007" data-link-type="dependency" data-source-line="56" id="lnk16"><path d="M670.19,360.9969 C648.88,337.9469 615.54,307.3669 578.8,294.1269 C519.01,272.5769 494.92,270.8169 435.8,294.1269 C405.45,306.0869 382.6809,327.1795 364.1609,348.9195" fill="none" id="learn_svc-to-rag" style="stroke:#89B4FA;stroke-width:1;"/><polygon fill="#89B4FA" points="360.27,353.4869,369.1513,349.2297,363.5124,349.6807,363.0614,344.0419,360.27,353.4869" style="stroke:#89B4FA;stroke-width:1;"/></g><!--link ticket_svc to tables--><g class="link" data-entity-1="ent0005" data-entity-2="ent0010" data-link-type="dependency" data-source-line="57" id="lnk17"><path d="M509.38,426.2369 C512.65,481.8269 518.597,582.9273 521.867,638.4073" fill="none" id="ticket_svc-to-tables" style="stroke:#89B4FA;stroke-width:1;"/><polygon fill="#89B4FA" points="522.22,644.3969,525.6835,635.1771,521.9258,639.4055,517.6974,635.6478,522.22,644.3969" style="stroke:#89B4FA;stroke-width:1;"/></g><!--link learn_svc to tables--><g class="link" data-entity-1="ent0006" data-entity-2="ent0010" data-link-type="dependency" data-source-line="58" id="lnk18"><path d="M677.84,418.7769 C646.76,471.5869 582.5132,580.7359 548.2732,638.9159" fill="none" id="learn_svc-to-tables" style="stroke:#89B4FA;stroke-width:1;"/><polygon fill="#89B4FA" points="545.23,644.0869,553.2421,638.3592,547.766,639.7777,546.3475,634.3016,545.23,644.0869" style="stroke:#89B4FA;stroke-width:1;"/></g><!--link rag to corpus--><g class="link" data-entity-1="ent0007" data-entity-2="ent0009" data-link-type="dependency" data-source-line="59" id="lnk19"><path d="M333.3,426.2369 C333.3,481.8269 333.3,582.9169 333.3,638.3969" fill="none" id="rag-to-corpus" style="stroke:#89B4FA;stroke-width:1;"/><polygon fill="#89B4FA" points="333.3,644.3969,337.3,635.3969,333.3,639.3969,329.3,635.3969,333.3,644.3969" style="stroke:#89B4FA;stroke-width:1;"/><text fill="#A6ADC8" font-family="Geist" font-size="13" lengthAdjust="spacing" textLength="88.8354" x="340.3" y="482.5938">vector search</text></g><!--link rag to openai--><g class="link" data-entity-1="ent0007" data-entity-2="ent0011" data-link-type="dependency" data-source-line="60" id="lnk20"><path d="M374.04,353.3269 C404.28,328.8069 447.83,298.6369 492.3,285.3369 C616.35,248.2169 925.48,333.9069 970.3,346.1269 C975.9,347.6569 975.8958,347.5487 981.6258,349.3487" fill="none" id="rag-to-openai" style="stroke:#89B4FA;stroke-width:1;"/><polygon fill="#89B4FA" points="987.35,351.1469,979.9625,344.6335,982.5798,349.6484,977.5649,352.2657,987.35,351.1469" style="stroke:#89B4FA;stroke-width:1;"/><text fill="#A6ADC8" font-family="Geist" font-size="13" lengthAdjust="spacing" textLength="95.3164" x="508.9135" y="291.1938">embeddings +</text><text fill="#A6ADC8" font-family="Geist" font-size="13" lengthAdjust="spacing" textLength="114.5435" x="499.3" y="306.3266">structured output</text></g><!--link rag to cohere--><g class="link" data-entity-1="ent0007" data-entity-2="ent0012" data-link-type="dependency" data-source-line="61" id="lnk21"><path d="M351.76,353.2569 C365.04,331.3269 385.18,305.3469 411.3,292.8369 C449.39,274.5869 681.01,310.4569 791.3,346.1269 C797.66,348.1869 798.5896,348.328 805.0196,350.968" fill="none" id="rag-to-cohere" style="stroke:#89B4FA;stroke-width:1;"/><polygon fill="#89B4FA" points="810.57,353.2469,803.7637,346.1283,805.9447,351.3478,800.7252,353.5289,810.57,353.2469" style="stroke:#89B4FA;stroke-width:1;"/><text fill="#A6ADC8" font-family="Geist" font-size="13" lengthAdjust="spacing" textLength="62.5244" x="418.3" y="298.6938">reranking</text></g><!--link ticket_svc to openai--><g class="link" data-entity-1="ent0005" data-entity-2="ent0011" data-link-type="dependency" data-source-line="62" id="lnk22"><path d="M539.04,353.3969 C560.89,331.2169 592,304.9069 625.8,292.8369 C698.75,266.7869 896.27,323.2869 970.3,346.1269 C975.95,347.8669 976.0418,347.8378 981.8518,349.7878" fill="none" id="ticket_svc-to-openai" style="stroke:#89B4FA;stroke-width:1;"/><polygon fill="#89B4FA" points="987.54,351.6969,980.2805,345.0411,982.7999,350.1059,977.735,352.6253,987.54,351.6969" style="stroke:#89B4FA;stroke-width:1;"/><text fill="#A6ADC8" font-family="Geist" font-size="13" lengthAdjust="spacing" textLength="111.3125" x="632.8" y="298.6938">ticket generation</text></g><?plantuml-src jLHDJzj04BtxLunQgMf11foOhnugGIGeBOKKvnW9JUo9iyNPjMRN0LfLwe_eB-mlwQnj4WVeeGTkrioyDpFlZTVUA5qYunmccDxaR2gT3KnX65v7556F0hkio6YALU5EZ7PjIPfbUzFu-P8Bd1ESahBk-NoYlXD4_KxIpZ0pjqhdCCN2TZktOx4cXgZNIPIOPHwm5tI2gPcNHfDsy2C0E7wyLp_gz-BOPmndn6rqzs1tihyZqQVh_UmkW0udQEa5gDF2LDaBy2ApkQrvsvg3mqaynNKSxc6M7gpXj77_M3FUZVTtyR_62Pno1K5IbQLXzqNf3Fxy-Wt9lNKqXoDEPyfHwYgc85ZvzsfZuuI5ZNIsiJ7M5tJdjhvPYFPW6wu8KmVHuLYFK1LoDjaWII2MJ29tbEfNW1QcBVeHgT-evJn1wuw6Pm8RthkPqT3VYderTj8KrH9qq0EZ5yGMdPBYDsDzJiZQt-2LgHpP6egbMWUDb70vI8WNAgMnVdkEEX_CKEbtDS3L-MkxIDTnI_8MMHSNFlYqzkhe58Qgf4BfXmwdZEMiwS2OUnkMzoigY1drjvTXQApBcPAlvn3jmoQK-KBiC5nZRLluM0ecnueMM5odXilAIjS61U86tJMDczGwi5dNYkYVZs5xh8jspMjQIBxHKEOioFgPcnz31huiIH-T-N5FXwCmDk5SQJKMW-zSIFC9rMz1s0yBvBoHoWW2rOfXO6R4zS9CZFecNCHREs79fXtLPuFWuMeWP9NFNFZ16mhluUDeD9IPFoMN5u6FXF9SQSbstEk6LpujlrQCteyLRaNLRDq1h2S4jWmroifShUXMGEciANbeqmWWDKjzB6oEjNLSrNzR1dArPUNMKOqGWcfK4jJQh4_8coJa90zq_MC4GVrwJ8npPWvckhg296LLYlMRtdfaGSfQi2cPbeJ9cgBo95REIE9oCz3VsUzboprBJ2dm_lWcVm40?></g></svg>